<?xml version="1.0" encoding="UTF-8"?>
<svg viewBox="0 0 351.10849 262.81226" xmlns="http://www.w3.org/2000/svg">
 <g transform="matrix(.85709 0 0 .85709 -265.18 -368.47)" fill="#fff" stroke="#000" stroke-linecap="round" stroke-linejoin="round">
  <path d="m310.57 542.49 3.3296 180.64 402.88 2.2164 1.1099-181.75z" stroke-width="2.3335"/>
  <path d="m573.73 515.06 1.0207 7.1709 105.24 0.5122-0.10934-8.7075z" stroke-width="2.3335"/>
  <path d="m344.71 512.87v9.3525h111.5l-0.96118-9.675z" stroke-width="2.3335"/>
  <path d="m511.07 443.12 0.34211 47.974 6.1821-0.56674 0.4838-47.29z" stroke-width="1.1667"/>
  <path d="m527.55 430.49-1.6518 62.255 9.0849-0.68412v-61.571z" stroke-width="1.1667"/>
  <path d="m453.36 491.21 0.87114 237.2 125.45 1.0358-1.9933-237.62z" stroke-width="2.3335"/>
  <path d="m432.47 672.74v62.639l14.112-0.0824-0.56675-62.874z" stroke-width="2.3335"/>
  <path d="m585.74 670.46-0.68412 62.748 14.229-0.30996-0.96749-63.496z" stroke-width="2.3335"/>
  <path d="m428.6 642.14 1e-5 29.992 175.27 0.68412-0.3348-29.973z" stroke-width="2.3335"/>
  <path d="m479.38 681.81 0.68412 45.861 76.503 1.4981-0.69474-47.049z" stroke-width="1.1667"/>
  <path d="m517.87 682.66 0.83112 45.825" stroke-width="1.1667"/>
  <path d="m500.03 521.21v23.22l26.288-0.9675 1e-5 -22.252z" stroke-width="1.1667"/>
  <path transform="matrix(.92685 0 0 1 38.924 -2.0524)" d="m504.07 482.99c0 7.2135-6.2809 13.061-14.029 13.061s-14.029-5.8477-14.029-13.061 6.2809-13.061 14.029-13.061 14.029 5.8477 14.029 13.061z" stroke-width="1.2119"/>
  <path d="m617.95 567.65-0.68412 21.285h33.862v-22.252z" stroke-width="1.1667"/>
  <path d="m664.67 566.68v21.285h33.862v-22.252z" stroke-width="1.1667"/>
  <path d="m664.67 566.68v21.285h33.862v-22.252z" stroke-width="1.1667"/>
  <path d="m618.23 607.6v21.969h33.862v-22.252z" stroke-width="1.1667"/>
  <path d="m664.67 607.31v21.285h33.862v-22.252z" stroke-width="1.1667"/>
  <path d="m618.92 641.74-0.68412 22.653h33.862v-22.252z" stroke-width="1.1667"/>
  <path d="m664.67 642.14v21.285h33.862v-22.252z" stroke-width="1.1667"/>
  <path d="m616.3 678.91v21.285h33.862v-22.252z" stroke-width="1.1667"/>
  <path d="m662.74 677.94v21.285h33.862v-22.252z" stroke-width="1.1667"/>
  <path d="m334.75 559.91v21.285h33.862v-22.252z" stroke-width="1.1667"/>
  <path d="m382.16 558.94v21.285h33.862v-22.252z" stroke-width="1.1667"/>
  <path d="m382.85 558.25-0.68412 21.969h33.862v-22.252z" stroke-width="1.1667"/>
  <path d="m335.72 600.54v21.285h33.862v-22.252z" stroke-width="1.1667"/>
  <path d="m382.16 599.57v21.285h33.862v-22.252z" stroke-width="1.1667"/>
  <path d="m335.72 635.37v21.285h33.862v-22.252z" stroke-width="1.1667"/>
  <path d="m382.16 634.4v21.285h33.862v-22.252z" stroke-width="1.1667"/>
  <path d="m333.79 671.17v21.285h33.862v-22.252z" stroke-width="1.1667"/>
  <path d="m380.23 670.2v21.285h33.862v-22.252z" stroke-width="1.1667"/>
  <path d="m355.06 522.85-0.68412 19.155h6.1571v-19.155z" stroke-width="1.1667"/>
  <path d="m385.85 522.85-0.68412 19.155h6.1571v-19.155z" stroke-width="1.1667"/>
  <path d="m385.85 522.85-0.68412 19.155h6.1571v-19.155z" stroke-width="1.1667"/>
  <path d="m422.1 523.53-0.68412 19.155h6.1571v-19.155z" stroke-width="1.1667"/>
  <path d="m594.5 523.53-0.68412 19.155h6.1571v-19.155z" stroke-width="1.1667"/>
  <path d="m624.61 523.53-0.68412 19.155h6.1571v-19.155z" stroke-width="1.1667"/>
  <path d="m654.71 523.53-0.68412 19.155h6.1571v-19.155z" stroke-width="1.1667"/>
  <path d="m500.03 560.88v23.22l26.772 0.48375-0.48374-23.704z" stroke-width="1.1667"/>
  <path d="m500.03 596.46v23.22l26.288 0.40075 1e-5 -23.621z" stroke-width="1.1667"/>
 </g>
</svg>
