<?xml version="1.0" encoding="UTF-8"?>
<svg viewBox="0 0 744.09448819 1052.3622047" xmlns="http://www.w3.org/2000/svg">
 <defs>
  <filter id="d">
   <feGaussianBlur stdDeviation="1.87724"/>
  </filter>
  <filter id="b"/>
  <linearGradient id="c" x2="0" y1="640.25" y2="204.83" gradientUnits="userSpaceOnUse">
   <stop stop-color="#cbcbcb" offset="0"/>
   <stop stop-color="#ddd" offset=".81"/>
   <stop stop-color="#c5c5c5" offset="1"/>
  </linearGradient>
  <radialGradient id="a" cx="143.58" cy="219.8" r="2.3557" gradientTransform="matrix(1 0 0 1.1417 0 -31.142)" gradientUnits="userSpaceOnUse">
   <stop stop-color="#d7d7d7" offset="0"/>
   <stop stop-color="#363636" offset="1"/>
  </radialGradient>
 </defs>
 <path d="m93.817 151.71h527.3v502.04h-527.3z" fill="#fff"/>
 <path transform="matrix(6.5149 0 0 6.5149 -787.13 -1184)" d="m138.22 213.17h73.545v63.118h-73.545z" fill="#666" filter="url(#d)"/>
 <path d="m113.34 204.83h479.14v411.21h-479.14z" fill="url(#c)"/>
 <g transform="matrix(6.5149 0 0 6.5149 -787.13 -1184)">
  <path transform="matrix(.56388 .29364 -.29364 .56388 186.91 50.152)" d="m141.9 218.2a2.1729 2.5072 0 1 1 -0.03198 0.04583" fill="url(#a)" stroke="#8d8d8d" stroke-width=".36505"/>
  <path transform="matrix(.98741 0 0 .98566 61.949 1.1447)" d="m143.24562,207.94591a.82162,.82162 0 0,1 .82162.82162v9.36027a.82162,.82162 0 0,1 -.82162.82162 .82162,.82162 0 0,1 -.82162-.82162v-9.36027a.82162,.82162 0 0,1 .82162-.82162" filter="url(#b)"/>
  <path transform="matrix(.56388 .29364 -.29364 .56388 182.91 50.152)" d="m141.9 218.2a2.1729 2.5072 0 1 1 -0.03198 0.04583" fill="url(#a)" stroke="#8d8d8d" stroke-width=".36505"/>
  <path transform="matrix(.98741 0 0 .98566 57.949 1.1447)" d="m143.24562,207.94591a.82162,.82162 0 0,1 .82162.82162v9.36027a.82162,.82162 0 0,1 -.82162.82162 .82162,.82162 0 0,1 -.82162-.82162v-9.36027a.82162,.82162 0 0,1 .82162-.82162" filter="url(#b)"/>
  <path transform="matrix(.56388 .29364 -.29364 .56388 178.91 50.152)" d="m141.9 218.2a2.1729 2.5072 0 1 1 -0.03198 0.04583" fill="url(#a)" stroke="#8d8d8d" stroke-width=".36505"/>
  <path transform="matrix(.98741 0 0 .98566 53.949 1.1447)" d="m143.24562,207.94591a.82162,.82162 0 0,1 .82162.82162v9.36027a.82162,.82162 0 0,1 -.82162.82162 .82162,.82162 0 0,1 -.82162-.82162v-9.36027a.82162,.82162 0 0,1 .82162-.82162" filter="url(#b)"/>
  <path transform="matrix(.56388 .29364 -.29364 .56388 174.91 50.152)" d="m141.9 218.2a2.1729 2.5072 0 1 1 -0.03198 0.04583" fill="url(#a)" stroke="#8d8d8d" stroke-width=".36505"/>
  <path transform="matrix(.98741 0 0 .98566 49.949 1.1447)" d="m143.24562,207.94591a.82162,.82162 0 0,1 .82162.82162v9.36027a.82162,.82162 0 0,1 -.82162.82162 .82162,.82162 0 0,1 -.82162-.82162v-9.36027a.82162,.82162 0 0,1 .82162-.82162" filter="url(#b)"/>
  <path transform="matrix(.56388 .29364 -.29364 .56388 170.91 50.152)" d="m141.9 218.2a2.1729 2.5072 0 1 1 -0.03198 0.04583" fill="url(#a)" stroke="#8d8d8d" stroke-width=".36505"/>
  <path transform="matrix(.98741 0 0 .98566 45.949 1.1447)" d="m143.24562,207.94591a.82162,.82162 0 0,1 .82162.82162v9.36027a.82162,.82162 0 0,1 -.82162.82162 .82162,.82162 0 0,1 -.82162-.82162v-9.36027a.82162,.82162 0 0,1 .82162-.82162" filter="url(#b)"/>
  <path transform="matrix(.56388 .29364 -.29364 .56388 166.91 50.152)" d="m141.9 218.2a2.1729 2.5072 0 1 1 -0.03198 0.04583" fill="url(#a)" stroke="#8d8d8d" stroke-width=".36505"/>
  <path transform="matrix(.98741 0 0 .98566 41.949 1.1447)" d="m143.24562,207.94591a.82162,.82162 0 0,1 .82162.82162v9.36027a.82162,.82162 0 0,1 -.82162.82162 .82162,.82162 0 0,1 -.82162-.82162v-9.36027a.82162,.82162 0 0,1 .82162-.82162" filter="url(#b)"/>
  <path transform="matrix(.56388 .29364 -.29364 .56388 162.91 50.152)" d="m141.9 218.2a2.1729 2.5072 0 1 1 -0.03198 0.04583" fill="url(#a)" stroke="#8d8d8d" stroke-width=".36505"/>
  <path transform="matrix(.98741 0 0 .98566 37.949 1.1447)" d="m143.24562,207.94591a.82162,.82162 0 0,1 .82162.82162v9.36027a.82162,.82162 0 0,1 -.82162.82162 .82162,.82162 0 0,1 -.82162-.82162v-9.36027a.82162,.82162 0 0,1 .82162-.82162" filter="url(#b)"/>
  <path transform="matrix(.56388 .29364 -.29364 .56388 158.91 50.152)" d="m141.9 218.2a2.1729 2.5072 0 1 1 -0.03198 0.04583" fill="url(#a)" stroke="#8d8d8d" stroke-width=".36505"/>
  <path transform="matrix(.98741 0 0 .98566 33.949 1.1447)" d="m143.24562,207.94591a.82162,.82162 0 0,1 .82162.82162v9.36027a.82162,.82162 0 0,1 -.82162.82162 .82162,.82162 0 0,1 -.82162-.82162v-9.36027a.82162,.82162 0 0,1 .82162-.82162" filter="url(#b)"/>
  <path transform="matrix(.56388 .29364 -.29364 .56388 154.91 50.152)" d="m141.9 218.2a2.1729 2.5072 0 1 1 -0.03198 0.04583" fill="url(#a)" stroke="#8d8d8d" stroke-width=".36505"/>
  <path transform="matrix(.98741 0 0 .98566 29.949 1.1447)" d="m143.24562,207.94591a.82162,.82162 0 0,1 .82162.82162v9.36027a.82162,.82162 0 0,1 -.82162.82162 .82162,.82162 0 0,1 -.82162-.82162v-9.36027a.82162,.82162 0 0,1 .82162-.82162" filter="url(#b)"/>
  <path transform="matrix(.56388 .29364 -.29364 .56388 150.91 50.152)" d="m141.9 218.2a2.1729 2.5072 0 1 1 -0.03198 0.04583" fill="url(#a)" stroke="#8d8d8d" stroke-width=".36505"/>
  <path transform="matrix(.98741 0 0 .98566 25.949 1.1447)" d="m143.24562,207.94591a.82162,.82162 0 0,1 .82162.82162v9.36027a.82162,.82162 0 0,1 -.82162.82162 .82162,.82162 0 0,1 -.82162-.82162v-9.36027a.82162,.82162 0 0,1 .82162-.82162" filter="url(#b)"/>
  <path transform="matrix(.56388 .29364 -.29364 .56388 146.91 50.152)" d="m141.9 218.2a2.1729 2.5072 0 1 1 -0.03198 0.04583" fill="url(#a)" stroke="#8d8d8d" stroke-width=".36505"/>
  <path transform="matrix(.98741 0 0 .98566 21.949 1.1447)" d="m143.24562,207.94591a.82162,.82162 0 0,1 .82162.82162v9.36027a.82162,.82162 0 0,1 -.82162.82162 .82162,.82162 0 0,1 -.82162-.82162v-9.36027a.82162,.82162 0 0,1 .82162-.82162" filter="url(#b)"/>
  <path transform="matrix(.56388 .29364 -.29364 .56388 142.91 50.152)" d="m141.9 218.2a2.1729 2.5072 0 1 1 -0.03198 0.04583" fill="url(#a)" stroke="#8d8d8d" stroke-width=".36505"/>
  <path transform="matrix(.98741 0 0 .98566 17.949 1.1447)" d="m143.24562,207.94591a.82162,.82162 0 0,1 .82162.82162v9.36027a.82162,.82162 0 0,1 -.82162.82162 .82162,.82162 0 0,1 -.82162-.82162v-9.36027a.82162,.82162 0 0,1 .82162-.82162" filter="url(#b)"/>
  <path transform="matrix(.56388 .29364 -.29364 .56388 138.91 50.152)" d="m141.9 218.2a2.1729 2.5072 0 1 1 -0.03198 0.04583" fill="url(#a)" stroke="#8d8d8d" stroke-width=".36505"/>
  <path transform="matrix(.98741 0 0 .98566 13.949 1.1447)" d="m143.24562,207.94591a.82162,.82162 0 0,1 .82162.82162v9.36027a.82162,.82162 0 0,1 -.82162.82162 .82162,.82162 0 0,1 -.82162-.82162v-9.36027a.82162,.82162 0 0,1 .82162-.82162" filter="url(#b)"/>
  <path transform="matrix(.56388 .29364 -.29364 .56388 134.91 50.152)" d="m141.9 218.2a2.1729 2.5072 0 1 1 -0.03198 0.04583" fill="url(#a)" stroke="#8d8d8d" stroke-width=".36505"/>
  <path transform="matrix(.98741 0 0 .98566 9.9487 1.1447)" d="m143.24562,207.94591a.82162,.82162 0 0,1 .82162.82162v9.36027a.82162,.82162 0 0,1 -.82162.82162 .82162,.82162 0 0,1 -.82162-.82162v-9.36027a.82162,.82162 0 0,1 .82162-.82162" filter="url(#b)"/>
  <path transform="matrix(.56388 .29364 -.29364 .56388 130.91 50.152)" d="m141.9 218.2a2.1729 2.5072 0 1 1 -0.03198 0.04583" fill="url(#a)" stroke="#8d8d8d" stroke-width=".36505"/>
  <path transform="matrix(.98741 0 0 .98566 5.9487 1.1447)" d="m143.24562,207.94591a.82162,.82162 0 0,1 .82162.82162v9.36027a.82162,.82162 0 0,1 -.82162.82162 .82162,.82162 0 0,1 -.82162-.82162v-9.36027a.82162,.82162 0 0,1 .82162-.82162" filter="url(#b)"/>
  <path transform="matrix(.56388 .29364 -.29364 .56388 126.91 50.152)" d="m141.9 218.2a2.1729 2.5072 0 1 1 -0.03198 0.04583" fill="url(#a)" stroke="#8d8d8d" stroke-width=".36505"/>
  <path transform="matrix(.98741 0 0 .98566 1.9487 1.1447)" d="m143.24562,207.94591a.82162,.82162 0 0,1 .82162.82162v9.36027a.82162,.82162 0 0,1 -.82162.82162 .82162,.82162 0 0,1 -.82162-.82162v-9.36027a.82162,.82162 0 0,1 .82162-.82162" filter="url(#b)"/>
  <path transform="matrix(.56388 .29364 -.29364 .56388 190.91 50.152)" d="m141.9 218.2a2.1729 2.5072 0 1 1 -0.03198 0.04583" fill="url(#a)" stroke="#8d8d8d" stroke-width=".36505"/>
  <path transform="matrix(.98741 0 0 .98566 65.949 1.1447)" d="m143.24562,207.94591a.82162,.82162 0 0,1 .82162.82162v9.36027a.82162,.82162 0 0,1 -.82162.82162 .82162,.82162 0 0,1 -.82162-.82162v-9.36027a.82162,.82162 0 0,1 .82162-.82162" filter="url(#b)"/>
 </g>
 <path d="m144.93 254.52h422.7a4.2628 4.2628 0 0 1 4.2628 4.2628v317.07a4.2628 4.2628 0 0 1 -4.2628 4.2628h-422.7a4.2628 4.2628 0 0 1 -4.2628 -4.2628v-317.07a4.2628 4.2628 0 0 1 4.2628 -4.2628" fill="#e6e6e6"/>
 <path d="m504.46 527.87h49.317a4.3562 4.3562 0 0 1 4.3562 4.3562v34.688a4.3562 4.3562 0 0 1 -4.3562 4.3562h-49.317a4.3562 4.3562 0 0 1 -4.3562 -4.3562v-34.688a4.3562 4.3562 0 0 1 4.3562 -4.3562" fill="#b3b3b3"/>
 <path d="m504.46 475.81h49.317a4.3562 4.3562 0 0 1 4.3562 4.3562v34.688a4.3562 4.3562 0 0 1 -4.3562 4.3562h-49.317a4.3562 4.3562 0 0 1 -4.3562 -4.3562v-34.688a4.3562 4.3562 0 0 1 4.3562 -4.3562" fill="#b3b3b3"/>
 <path d="m504.46 423.76h49.317a4.3562 4.3562 0 0 1 4.3562 4.3562v34.688a4.3562 4.3562 0 0 1 -4.3562 4.3562h-49.317a4.3562 4.3562 0 0 1 -4.3562 -4.3562v-34.688a4.3562 4.3562 0 0 1 4.3562 -4.3562" fill="#b3b3b3"/>
 <path d="m504.46 371.7h49.317a4.3562 4.3562 0 0 1 4.3562 4.3562v34.688a4.3562 4.3562 0 0 1 -4.3562 4.3562h-49.317a4.3562 4.3562 0 0 1 -4.3562 -4.3562v-34.688a4.3562 4.3562 0 0 1 4.3562 -4.3562" fill="#b3b3b3"/>
 <path d="m504.46 319.65h49.317a4.3562 4.3562 0 0 1 4.3562 4.3562v34.688a4.3562 4.3562 0 0 1 -4.3562 4.3562h-49.317a4.3562 4.3562 0 0 1 -4.3562 -4.3562v-34.688a4.3562 4.3562 0 0 1 4.3562 -4.3562" fill="#b3b3b3"/>
 <path d="m504.46 267.59h49.317a4.3562 4.3562 0 0 1 4.3562 4.3562v34.688a4.3562 4.3562 0 0 1 -4.3562 4.3562h-49.317a4.3562 4.3562 0 0 1 -4.3562 -4.3562v-34.688a4.3562 4.3562 0 0 1 4.3562 -4.3562" fill="#b3b3b3"/>
 <text x="516.75519" y="564.36584" fill="#999" font-family="Bitstream Vera Sans" font-size="39.09">
  <tspan x="516.75519" y="564.36584">5</tspan>
 </text>
 <text x="504.47287" y="512.41559" font-family="Bitstream Vera Sans" font-size="39.09">
  <tspan x="504.47287" y="512.41559">27</tspan>
 </text>
 <text x="504.60648" y="460.46539" font-family="Bitstream Vera Sans" font-size="39.09">
  <tspan x="504.60648" y="460.46539">21</tspan>
 </text>
 <text x="503.79529" y="408.51508" font-family="Bitstream Vera Sans" font-size="39.09">
  <tspan x="503.79529" y="408.51508">15</tspan>
 </text>
 <text x="516.82196" y="356.56488" font-family="Bitstream Vera Sans" font-size="39.09">
  <tspan x="516.82196" y="356.56488">9</tspan>
 </text>
 <text x="516.75519" y="304.61459" font-family="Bitstream Vera Sans" font-size="39.09">
  <tspan x="516.75519" y="304.61459">3</tspan>
 </text>
 <path d="m435.52 527.87h49.317a4.3562 4.3562 0 0 1 4.3562 4.3562v34.688a4.3562 4.3562 0 0 1 -4.3562 4.3562h-49.317a4.3562 4.3562 0 0 1 -4.3562 -4.3562v-34.688a4.3562 4.3562 0 0 1 4.3562 -4.3562" fill="#b3b3b3"/>
 <path d="m435.52 475.81h49.317a4.3562 4.3562 0 0 1 4.3562 4.3562v34.688a4.3562 4.3562 0 0 1 -4.3562 4.3562h-49.317a4.3562 4.3562 0 0 1 -4.3562 -4.3562v-34.688a4.3562 4.3562 0 0 1 4.3562 -4.3562" fill="#b3b3b3"/>
 <path d="m435.52 423.76h49.317a4.3562 4.3562 0 0 1 4.3562 4.3562v34.688a4.3562 4.3562 0 0 1 -4.3562 4.3562h-49.317a4.3562 4.3562 0 0 1 -4.3562 -4.3562v-34.688a4.3562 4.3562 0 0 1 4.3562 -4.3562" fill="#b3b3b3"/>
 <path d="m435.52 371.7h49.317a4.3562 4.3562 0 0 1 4.3562 4.3562v34.688a4.3562 4.3562 0 0 1 -4.3562 4.3562h-49.317a4.3562 4.3562 0 0 1 -4.3562 -4.3562v-34.688a4.3562 4.3562 0 0 1 4.3562 -4.3562" fill="#b3b3b3"/>
 <path d="m435.52 319.65h49.317a4.3562 4.3562 0 0 1 4.3562 4.3562v34.688a4.3562 4.3562 0 0 1 -4.3562 4.3562h-49.317a4.3562 4.3562 0 0 1 -4.3562 -4.3562v-34.688a4.3562 4.3562 0 0 1 4.3562 -4.3562" fill="#b3b3b3"/>
 <path d="m435.52 267.59h49.317a4.3562 4.3562 0 0 1 4.3562 4.3562v34.688a4.3562 4.3562 0 0 1 -4.3562 4.3562h-49.317a4.3562 4.3562 0 0 1 -4.3562 -4.3562v-34.688a4.3562 4.3562 0 0 1 4.3562 -4.3562" fill="#b3b3b3"/>
 <text x="448.27249" y="564.36584" fill="#999" font-family="Bitstream Vera Sans" font-size="39.09">
  <tspan x="448.27249" y="564.36584">4</tspan>
 </text>
 <text x="435.10266" y="512.41559" font-family="Bitstream Vera Sans" font-size="39.09">
  <tspan x="435.10266" y="512.41559">26</tspan>
 </text>
 <text x="435.16946" y="460.46539" font-family="Bitstream Vera Sans" font-size="39.09">
  <tspan x="435.16946" y="460.46539">20</tspan>
 </text>
 <text x="434.2533" y="408.51508" font-family="Bitstream Vera Sans" font-size="39.09">
  <tspan x="434.2533" y="408.51508">14</tspan>
 </text>
 <text x="447.75717" y="356.56488" font-family="Bitstream Vera Sans" font-size="39.09">
  <tspan x="447.75717" y="356.56488">8</tspan>
 </text>
 <text x="448.27249" y="304.61459" font-family="Bitstream Vera Sans" font-size="39.09">
  <tspan x="448.27249" y="304.61459">2</tspan>
 </text>
 <path d="m366.59 527.87h49.317a4.3562 4.3562 0 0 1 4.3562 4.3562v34.688a4.3562 4.3562 0 0 1 -4.3562 4.3562h-49.317a4.3562 4.3562 0 0 1 -4.3562 -4.3562v-34.688a4.3562 4.3562 0 0 1 4.3562 -4.3562" fill="#b3b3b3"/>
 <path d="m366.59 475.81h49.317a4.3562 4.3562 0 0 1 4.3562 4.3562v34.688a4.3562 4.3562 0 0 1 -4.3562 4.3562h-49.317a4.3562 4.3562 0 0 1 -4.3562 -4.3562v-34.688a4.3562 4.3562 0 0 1 4.3562 -4.3562" fill="#b3b3b3"/>
 <path d="m366.59 423.76h49.317a4.3562 4.3562 0 0 1 4.3562 4.3562v34.688a4.3562 4.3562 0 0 1 -4.3562 4.3562h-49.317a4.3562 4.3562 0 0 1 -4.3562 -4.3562v-34.688a4.3562 4.3562 0 0 1 4.3562 -4.3562" fill="#b3b3b3"/>
 <path d="m366.59 371.7h49.317a4.3562 4.3562 0 0 1 4.3562 4.3562v34.688a4.3562 4.3562 0 0 1 -4.3562 4.3562h-49.317a4.3562 4.3562 0 0 1 -4.3562 -4.3562v-34.688a4.3562 4.3562 0 0 1 4.3562 -4.3562" fill="#b3b3b3"/>
 <path d="m366.59 319.65h49.317a4.3562 4.3562 0 0 1 4.3562 4.3562v34.688a4.3562 4.3562 0 0 1 -4.3562 4.3562h-49.317a4.3562 4.3562 0 0 1 -4.3562 -4.3562v-34.688a4.3562 4.3562 0 0 1 4.3562 -4.3562" fill="#b3b3b3"/>
 <path d="m366.59 267.59h49.317a4.3562 4.3562 0 0 1 4.3562 4.3562v34.688a4.3562 4.3562 0 0 1 -4.3562 4.3562h-49.317a4.3562 4.3562 0 0 1 -4.3562 -4.3562v-34.688a4.3562 4.3562 0 0 1 4.3562 -4.3562" fill="#b3b3b3"/>
 <text x="378.89264" y="564.36584" fill="#999" font-family="Bitstream Vera Sans" font-size="39.09">
  <tspan x="378.89264" y="564.36584">3</tspan>
 </text>
 <text x="366.64841" y="512.41559" font-family="Bitstream Vera Sans" font-size="39.09">
  <tspan x="366.64841" y="512.41559">25</tspan>
 </text>
 <text x="365.59863" y="460.46539" font-family="Bitstream Vera Sans" font-size="39.09">
  <tspan x="365.59863" y="460.46539">19</tspan>
 </text>
 <text x="365.78952" y="408.51508" font-family="Bitstream Vera Sans" font-size="39.09">
  <tspan x="365.78952" y="408.51508">13</tspan>
 </text>
 <text x="378.883" y="356.56488" font-family="Bitstream Vera Sans" font-size="39.09">
  <tspan x="378.883" y="356.56488">7</tspan>
 </text>
 <text x="378.47263" y="304.61459" font-family="Bitstream Vera Sans" font-size="39.09">
  <tspan x="378.47263" y="304.61459">1</tspan>
 </text>
 <path d="m297.66 527.87h49.317a4.3562 4.3562 0 0 1 4.3562 4.3562v34.688a4.3562 4.3562 0 0 1 -4.3562 4.3562h-49.317a4.3562 4.3562 0 0 1 -4.3562 -4.3562v-34.688a4.3562 4.3562 0 0 1 4.3562 -4.3562" fill="#b3b3b3"/>
 <path d="m297.66 475.81h49.317a4.3562 4.3562 0 0 1 4.3562 4.3562v34.688a4.3562 4.3562 0 0 1 -4.3562 4.3562h-49.317a4.3562 4.3562 0 0 1 -4.3562 -4.3562v-34.688a4.3562 4.3562 0 0 1 4.3562 -4.3562" fill="#b3b3b3"/>
 <path d="m297.66 423.76h49.317a4.3562 4.3562 0 0 1 4.3562 4.3562v34.688a4.3562 4.3562 0 0 1 -4.3562 4.3562h-49.317a4.3562 4.3562 0 0 1 -4.3562 -4.3562v-34.688a4.3562 4.3562 0 0 1 4.3562 -4.3562" fill="#b3b3b3"/>
 <path d="m297.66 371.7h49.317a4.3562 4.3562 0 0 1 4.3562 4.3562v34.688a4.3562 4.3562 0 0 1 -4.3562 4.3562h-49.317a4.3562 4.3562 0 0 1 -4.3562 -4.3562v-34.688a4.3562 4.3562 0 0 1 4.3562 -4.3562" fill="#b3b3b3"/>
 <path d="m297.66 319.65h49.317a4.3562 4.3562 0 0 1 4.3562 4.3562v34.688a4.3562 4.3562 0 0 1 -4.3562 4.3562h-49.317a4.3562 4.3562 0 0 1 -4.3562 -4.3562v-34.688a4.3562 4.3562 0 0 1 4.3562 -4.3562" fill="#b3b3b3"/>
 <path d="m297.66 267.59h49.317a4.3562 4.3562 0 0 1 4.3562 4.3562v34.688a4.3562 4.3562 0 0 1 -4.3562 4.3562h-49.317a4.3562 4.3562 0 0 1 -4.3562 -4.3562v-34.688a4.3562 4.3562 0 0 1 4.3562 -4.3562" fill="#b3b3b3"/>
 <text x="310.40997" y="564.36584" fill="#999" font-family="Bitstream Vera Sans" font-size="39.09">
  <tspan x="310.40997" y="564.36584">2</tspan>
 </text>
 <text x="297.10651" y="512.41559" font-family="Bitstream Vera Sans" font-size="39.09">
  <tspan x="297.10651" y="512.41559">24</tspan>
 </text>
 <text x="296.62933" y="460.46539" font-family="Bitstream Vera Sans" font-size="39.09">
  <tspan x="296.62933" y="460.46539">18</tspan>
 </text>
 <text x="297.24966" y="408.51508" font-family="Bitstream Vera Sans" font-size="39.09">
  <tspan x="297.24966" y="408.51508">12</tspan>
 </text>
 <text x="309.75146" y="356.56488" font-family="Bitstream Vera Sans" font-size="39.09">
  <tspan x="309.75146" y="356.56488">6</tspan>
 </text>
 <text x="297.75546" y="304.61459" fill="#999" font-family="Bitstream Vera Sans" font-size="39.09">
  <tspan x="297.75546" y="304.61459">31</tspan>
 </text>
 <path d="m228.73 527.87h49.317a4.3562 4.3562 0 0 1 4.3562 4.3562v34.688a4.3562 4.3562 0 0 1 -4.3562 4.3562h-49.317a4.3562 4.3562 0 0 1 -4.3562 -4.3562v-34.688a4.3562 4.3562 0 0 1 4.3562 -4.3562" fill="#b3b3b3"/>
 <path d="m228.73 475.81h49.317a4.3562 4.3562 0 0 1 4.3562 4.3562v34.688a4.3562 4.3562 0 0 1 -4.3562 4.3562h-49.317a4.3562 4.3562 0 0 1 -4.3562 -4.3562v-34.688a4.3562 4.3562 0 0 1 4.3562 -4.3562" fill="#b3b3b3"/>
 <path d="m228.73 423.76h49.317a4.3562 4.3562 0 0 1 4.3562 4.3562v34.688a4.3562 4.3562 0 0 1 -4.3562 4.3562h-49.317a4.3562 4.3562 0 0 1 -4.3562 -4.3562v-34.688a4.3562 4.3562 0 0 1 4.3562 -4.3562" fill="#b3b3b3"/>
 <path d="m228.73 371.7h49.317a4.3562 4.3562 0 0 1 4.3562 4.3562v34.688a4.3562 4.3562 0 0 1 -4.3562 4.3562h-49.317a4.3562 4.3562 0 0 1 -4.3562 -4.3562v-34.688a4.3562 4.3562 0 0 1 4.3562 -4.3562" fill="#b3b3b3"/>
 <path d="m228.73 319.65h49.317a4.3562 4.3562 0 0 1 4.3562 4.3562v34.688a4.3562 4.3562 0 0 1 -4.3562 4.3562h-49.317a4.3562 4.3562 0 0 1 -4.3562 -4.3562v-34.688a4.3562 4.3562 0 0 1 4.3562 -4.3562" fill="#b3b3b3"/>
 <path d="m228.73 267.59h49.317a4.3562 4.3562 0 0 1 4.3562 4.3562v34.688a4.3562 4.3562 0 0 1 -4.3562 4.3562h-49.317a4.3562 4.3562 0 0 1 -4.3562 -4.3562v-34.688a4.3562 4.3562 0 0 1 4.3562 -4.3562" fill="#b3b3b3"/>
 <text x="240.6102" y="564.36584" fill="#999" font-family="Bitstream Vera Sans" font-size="39.09">
  <tspan x="240.6102" y="564.36584">1</tspan>
 </text>
 <text x="228.64282" y="512.41559" font-family="Bitstream Vera Sans" font-size="39.09">
  <tspan x="228.64282" y="512.41559">23</tspan>
 </text>
 <text x="228.03204" y="460.46539" font-family="Bitstream Vera Sans" font-size="39.09">
  <tspan x="228.03204" y="460.46539">17</tspan>
 </text>
 <text x="228.16565" y="408.51508" fill="#f00" font-family="Bitstream Vera Sans" font-size="39.09">
  <tspan x="228.16565" y="408.51508">11</tspan>
 </text>
 <text x="241.15417" y="356.56488" font-family="Bitstream Vera Sans" font-size="39.09">
  <tspan x="241.15417" y="356.56488">5</tspan>
 </text>
 <text x="228.31834" y="304.61459" fill="#999" font-family="Bitstream Vera Sans" font-size="39.09">
  <tspan x="228.31834" y="304.61459">30</tspan>
 </text>
 <path d="m159.8 527.87h49.317a4.3562 4.3562 0 0 1 4.3562 4.3562v34.688a4.3562 4.3562 0 0 1 -4.3562 4.3562h-49.317a4.3562 4.3562 0 0 1 -4.3562 -4.3562v-34.688a4.3562 4.3562 0 0 1 4.3562 -4.3562" fill="#b3b3b3"/>
 <path d="m159.8 475.81h49.317a4.3562 4.3562 0 0 1 4.3562 4.3562v34.688a4.3562 4.3562 0 0 1 -4.3562 4.3562h-49.317a4.3562 4.3562 0 0 1 -4.3562 -4.3562v-34.688a4.3562 4.3562 0 0 1 4.3562 -4.3562" fill="#b3b3b3"/>
 <path d="m159.8 423.76h49.317a4.3562 4.3562 0 0 1 4.3562 4.3562v34.688a4.3562 4.3562 0 0 1 -4.3562 4.3562h-49.317a4.3562 4.3562 0 0 1 -4.3562 -4.3562v-34.688a4.3562 4.3562 0 0 1 4.3562 -4.3562" fill="#b3b3b3"/>
 <path d="m159.8 371.7h49.317a4.3562 4.3562 0 0 1 4.3562 4.3562v34.688a4.3562 4.3562 0 0 1 -4.3562 4.3562h-49.317a4.3562 4.3562 0 0 1 -4.3562 -4.3562v-34.688a4.3562 4.3562 0 0 1 4.3562 -4.3562" fill="#b3b3b3"/>
 <path d="m159.8 319.65h49.317a4.3562 4.3562 0 0 1 4.3562 4.3562v34.688a4.3562 4.3562 0 0 1 -4.3562 4.3562h-49.317a4.3562 4.3562 0 0 1 -4.3562 -4.3562v-34.688a4.3562 4.3562 0 0 1 4.3562 -4.3562" fill="#b3b3b3"/>
 <path d="m159.8 267.59h49.317a4.3562 4.3562 0 0 1 4.3562 4.3562v34.688a4.3562 4.3562 0 0 1 -4.3562 4.3562h-49.317a4.3562 4.3562 0 0 1 -4.3562 -4.3562v-34.688a4.3562 4.3562 0 0 1 4.3562 -4.3562" fill="#b3b3b3"/>
 <text x="159.48247" y="564.36584" font-family="Bitstream Vera Sans" font-size="39.09">
  <tspan x="159.48247" y="564.36584">28</tspan>
 </text>
 <text x="160.10278" y="512.41559" font-family="Bitstream Vera Sans" font-size="39.09">
  <tspan x="160.10278" y="512.41559">22</tspan>
 </text>
 <text x="158.66173" y="460.46539" font-family="Bitstream Vera Sans" font-size="39.09">
  <tspan x="158.66173" y="460.46539">16</tspan>
 </text>
 <text x="158.72853" y="408.51508" font-family="Bitstream Vera Sans" font-size="39.09">
  <tspan x="158.72853" y="408.51508">10</tspan>
 </text>
 <text x="172.16559" y="356.56488" font-family="Bitstream Vera Sans" font-size="39.09">
  <tspan x="172.16559" y="356.56488">4</tspan>
 </text>
 <text x="159.52063" y="304.61459" fill="#999" font-family="Bitstream Vera Sans" font-size="39.09">
  <tspan x="159.52063" y="304.61459">29</tspan>
 </text>
</svg>
