<?xml version="1.0" encoding="UTF-8"?>
<svg viewBox="0 0 380.2 341.75" xmlns="http://www.w3.org/2000/svg" xmlns:xlink="http://www.w3.org/1999/xlink">
 <defs>
  <symbol id="a" x="0" y="0" width="187.5" height="187.5">
   <g transform="matrix(.83316 0 0 .83316 420 -144.85)">
    <path d="m-354 232.36l-89 89-6.0849 22.709 21.6-5.7877 89.703-89.703s8.3064-7.9679 0-16.218c-7.8053-7.7527-15.833-0.36757-16.218 0z" fill="none" stroke="#000" stroke-width="4.5"/>
    <path d="m-424.53 334.24s-4.6861 1.975-6.8272-0.24103c-2.1411-2.2161-1.0877-6.71-1.0877-6.71s-3.7968 1.9647-5.3451-0.25821c-1.5483-2.223-2.1789-3.4962-1.3558-5.7466 0.82312-2.2504 0.20194-3.2036 0.20194-3.2036" fill="none" stroke="#000" stroke-width="2.298"/>
    <path d="m-447.41 341.88l4.6919-4.0216" fill="none" stroke="#000" stroke-width="6.25"/>
    <path d="m-432.14 327.46c4.3568-4.3568 93.838-92.497 93.838-92.497" fill="none" stroke="#000" stroke-width="2.75"/>
    <path transform="matrix(.70879 .14408 .40256 .82549 -193.88 87.715)" d="m-335.39 238.29a8.4757 8.8793 0 1 1 -16.951 0 8.4757 8.8793 0 1 1 16.951 0z" stroke="#000" stroke-linecap="round" stroke-linejoin="round" stroke-width="2.75"/>
   </g>
  </symbol>
 </defs>
 <g fill="#fff" stroke-linecap="round" stroke-linejoin="round">
  <g stroke="#000">
   <path d="m-78.698 120.32c-3.0965 4.6775-8.0182 7.6149 2.3775 15.07l128.37 89.526 149.12-177.06-129.27-80.935-150.59 153.4z" stroke-width="1.701"/>
   <path d="m-74.408 114.76l0.4755 9.575c-0.48986 1.9654 1.1248 3.6862 3.778 5.2386l126.85 89.612 143.02-170.67-129.79-82.848-144.33 149.09z" stroke-width="1.351"/>
   <path d="m52.124 224.86l137.62 99.299c6.3922 5.082 14.421 5.0295 21.184-1.3378l136.98-163.13c5.696-6.5818 8.2275-11.458-1.672-16.026l-141.86-86.317-152.26 167.51z" stroke-width="1.701"/>
  </g>
  <path d="m196.45 303.64l3.3485 15.723 143.43-167.23c2.0287-2.2197 3.7122-3.8654 2.6558-7.0785l-0.3912-15.452-149.04 174.04z" stroke="#333" stroke-dashoffset="1.5" stroke-width="1.351"/>
  <g stroke="#000">
   <path d="m55.615 206.77l0.9045 11.236 139.54 98.87c4.5418 4.2688 4.1598 1.841 3.5488-0.80353l-2.0137-13.17-141.98-96.133z" stroke-dashoffset="1.5" stroke-width="1.351"/>
   <g stroke-width="1.726">
    <path d="m54.276 206.1c49.017 33.356 83.432 58.66 134.74 92.254 6.6787 5.0144 11.134 2.5437 14.51-1.3217l137.08-160.25c4.1955-4.3428 7.4174-7.1182 1.107-9.6211-46.943-26.628-76.817-58.401-135.44-81.952l-152 160.9z"/>
    <path d="m-70.429 117.26c45.411 35.098 79.638 55.566 125.1 89.83l152.45-161.09c-3.2346-11.496-82.712-50.677-124.74-80.1-5.9526-4.9496-13.489-2.7064-15.193 0.34737l-138.34 140.39c-4.4717 5.6173-2.4424 7.749 0.72747 10.624z"/>
   </g>
  </g>
 </g>
 <g stroke="#333">
  <g fill="#fff">
   <path d="m198.12 84.454l12.302-13.555 15.098 9.384-12.302 14.598-15.098-10.427z"/>
   <path d="m220.02 97.892l11.819-12.929 89.179 56.688-12.894 13.923-88.104-57.683z" stroke-width=".918"/>
  </g>
  <g fill="#f00" stroke-dashoffset="3.003" stroke-linecap="round" stroke-linejoin="round">
   <path d="m113.31 171.49l113.23 75.518"/>
   <path d="m176.53 101.61l112.32 72.992"/>
   <path d="m186.35 92.134l112.78 72.994"/>
   <path d="m167.95 113.82l110.97 71.729"/>
   <path d="m157.57 126.02l112.32 71.308"/>
   <path d="m147.18 136.55l112.32 72.571"/>
   <path d="m136.34 147.92l112.78 74.466"/>
   <path d="m124.6 158.44l113.23 76.359"/>
   <path d="m103.38 184.96l113.23 75.517"/>
   <path d="m91.188 199.28l113.23 75.517"/>
  </g>
  <g fill="#fff">
   <path d="m54.516-4.2901l11.407-12.463 13.998 8.6285-11.407 13.422-13.998-9.5872z" stroke-width=".923"/>
   <path d="m73.454 8.4767l12.17-12.72 91.825 55.771-13.276 13.698-90.719-56.75z" stroke-width=".924"/>
  </g>
  <g transform="matrix(1.0896 0 0 1.0045 -174.43 -64.532)" fill="#f00" stroke-dashoffset="3.003" stroke-linecap="round" stroke-linejoin="round">
   <path d="m133.42 145.04l100.21 70.758"/>
   <path d="m190.17 80.263l97.612 68.037"/>
   <path d="m198.02 70.059l98.007 68.039"/>
   <path d="m182.72 91.644l96.435 66.859"/>
   <path d="m173.69 103.02l97.612 66.467"/>
   <path d="m164.67 112.83l97.612 67.644"/>
   <path d="m155.25 123.43l98.004 69.41"/>
   <path d="m143.23 133.24l100.21 71.176"/>
   <path d="m123.7 157.23l101.3 71.125"/>
   <path d="m114.19 168.37l100.21 73.327"/>
  </g>
  <g fill="#fff" stroke-width=".736">
   <path d="m183.68 103.7l5.3819-5.8812 6.6062 4.0714-5.383 6.3329-6.6051-4.523z"/>
   <path d="m174.05 113.5l5.3819-5.8802 6.6062 4.0703-5.383 6.334-6.6051-4.5241z"/>
   <path d="m164.43 124.75l5.383-5.8812 6.6051 4.0714-5.3819 6.3329-6.6062-4.523z"/>
   <path d="m154.3 135.4l5.3819-5.8802 6.6062 4.0714-5.383 6.3329-6.6051-4.5241z"/>
   <path d="m142.67 147.32l5.3819-5.8802 6.6051 4.0714-5.3818 6.3329-6.6051-4.5241z"/>
   <path d="m132.54 158.6l5.3819-5.8801 6.6051 4.0714-5.3819 6.3329-6.6051-4.5241z"/>
   <path d="m120.28 170.74l5.383-5.8801 6.605 4.0714-5.3819 6.3329-6.6062-4.5241z"/>
   <path d="m109.82 178.93l5.383-5.8802 6.605 4.0714-5.3819 6.3329-6.6062-4.5241z"/>
   <path d="m99.99 190.18l5.3819-5.8801 6.605 4.0703-5.3819 6.334-6.605-4.5241z"/>
  </g>
 </g>
 <g fill="#fff">
  <path d="m216.27 49.973c-45.284 67.299-88.107 115.89-135.22 177.39-6.2575 7.1708-10.463 17.829-9.132 27.211l-10.924-4.788c-1.3038-10.046 3.7997-20.704 10.154-27.795 52.21-62.725 93.766-112.26 135.82-177.59 5.4624-0.73521 8.4888 2.2776 9.3092 5.5761z" stroke="#000" stroke-dashoffset="3.003" stroke-linecap="round" stroke-linejoin="round"/>
  <g stroke="#333" stroke-width=".736">
   <path d="m35.398 14.49l5.3819-5.8806 6.6051 4.0712-5.3819 6.333-6.6051-4.5236z"/>
   <path d="m25.892 24.332l5.3821-5.8806 6.6053 4.0713-5.3819 6.3329-6.6055-4.5236z"/>
   <path d="m15.595 34.759l5.3822-5.8806 6.6053 4.0712-5.3821 6.333-6.6054-4.5236z"/>
   <path d="m5.4614 45.923l5.3821-5.8806 6.6054 4.0712-5.3822 6.333-6.6053-4.5236z"/>
   <path d="m-4.2087 55.766l5.3822-5.8806 6.6053 4.0712-5.3821 6.333-6.6054-4.5236z"/>
   <path d="m-15.46 66.777l5.3821-5.8806 6.6054 4.0713-5.3822 6.3326-6.6053-4.5232z"/>
   <path d="m-26.876 77.878l5.3821-5.8802 6.6054 4.0714-5.3821 6.3329-6.6054-4.5241z"/>
   <path d="m-38.455 89.717l5.3822-5.8812 6.6053 4.0714-5.3822 6.3329-6.6053-4.523z"/>
   <path d="m-48.289 100.97l5.3822-5.8812 6.6053 4.0714-5.3821 6.3329-6.6054-4.523z"/>
  </g>
 </g>
 <use transform="rotate(115.88 246.63 227.42) matrix(1.2908 0 0 1.1462 -14.973 -27.705)" x="106.985006" y="130.545787" fill="#efe8e8" xlink:href="#a"/>
</svg>
