<?xml version="1.0" encoding="UTF-8"?>
<svg fill="none" stroke="#000000" version="1.1" viewBox="0 0 500 500" xmlns="http://www.w3.org/2000/svg">
 <rect x="8.75" y="8.75" width="482.5" height="482.5" rx="50" ry="50" stroke="#000" stroke-width="17.5"/>
 <path d="m247.46 73.912c-98.18 0-177.78 79.603-177.78 177.78 0 98.18 79.603 177.78 177.78 177.78 98.18 0 177.78-79.603 177.78-177.78 0-98.18-79.603-177.78-177.78-177.78zm11.111 332.78v-21.659h-22.223v21.659c-76.89-5.4689-138.42-66.994-143.88-143.88h21.658v-22.223h-21.658c5.4689-76.89 66.994-138.42 143.88-143.88v21.658h22.223v-21.658c76.89 5.4689 138.42 66.994 143.88 143.88h-21.659v22.223h21.659c-5.4689 76.89-66.994 138.42-143.88 143.88zm70.683-202.22c1.5195 2.648 0.60765 6.055-2.0403 7.596l-58.693 33.877c0.50973 1.8882 1.1611 3.7112 1.1611 5.7509 0 12.284-9.9503 22.223-22.223 22.223-12.273 0-22.223-9.9399-22.223-22.223l-60.31-34.81c-5.3168-3.082-7.1398-9.8746-4.0689-15.191 3.0598-5.339 9.8635-7.162 15.18-4.08l60.657 35.027c3.2334-1.823 6.771-3.1688 10.764-3.1688 6.2071 0 11.795 2.5612 15.832 6.6842l58.368-33.725c2.6049-1.5403 6.012-0.62919 7.5961 2.0403z" fill="#000" stroke-width="10.417"/>
</svg>
